HIERARCHY
ROOT Hips
{
	OFFSET 0.000000 100.481300 0.000000
	CHANNELS 6 Xposition Yposition Zposition Xrotation Yrotation Zrotation 
	JOINT Spine
	{
		OFFSET -0.279200 12.230698 -2.892100
		CHANNELS 3 Xrotation Yrotation Zrotation
		JOINT Spine1
		{
			OFFSET -0.232667 10.192268 -1.242267
			CHANNELS 3 Xrotation Yrotation Zrotation
			JOINT Spine1_split
			{
				OFFSET -0.232667 10.192268 -1.242267
				CHANNELS 3 Xrotation Yrotation Zrotation
				JOINT Spine2
				{
					OFFSET -0.232667 10.192268 -1.242267
					CHANNELS 3 Xrotation Yrotation Zrotation
					JOINT Neck
					{
						OFFSET -0.418800 17.814194 8.416900
						CHANNELS 3 Xrotation Yrotation Zrotation
						JOINT Head
						{
							OFFSET 0.000000 7.031097 3.806800
							CHANNELS 3 Xrotation Yrotation Zrotation
							JOINT HeadTop_End
							{
								OFFSET 0.000000 24.646606 12.978600
								CHANNELS 3 Xrotation Yrotation Zrotation
								End Site
								{
									OFFSET 0.000000 0.000000 0.000000
								}
							}
						}
					}
					JOINT LeftShoulder
					{
						OFFSET 8.476499 7.247704 -3.868750
						CHANNELS 3 Xrotation Yrotation Zrotation
						JOINT LeftShoulder_split
						{
							OFFSET 8.476499 7.247704 -3.868750
							CHANNELS 3 Xrotation Yrotation Zrotation
							JOINT LeftArm
							{
								OFFSET 9.308998 -2.777710 0.208600
								CHANNELS 3 Xrotation Yrotation Zrotation
								JOINT LeftForeArm
								{
									OFFSET 29.972298 0.000000 0.000000
									CHANNELS 3 Xrotation Yrotation Zrotation
									JOINT LeftHand
									{
										OFFSET 26.026505 0.000000 0.000000
										CHANNELS 3 Xrotation Yrotation Zrotation
										JOINT LeftHandThumb1
										{
											OFFSET 12.240501 -7.147949 9.207150
											CHANNELS 3 Xrotation Yrotation Zrotation
											JOINT LeftHandThumb2
											{
												OFFSET 4.138618 -2.389435 2.389433
												CHANNELS 3 Xrotation Yrotation Zrotation
												JOINT LeftHandThumb3
												{
													OFFSET 2.726913 -1.574387 1.574386
													CHANNELS 3 Xrotation Yrotation Zrotation
													JOINT LeftHandThumb4
													{
														OFFSET 3.941010 -2.275345 2.275342
														CHANNELS 3 Xrotation Yrotation Zrotation
														End Site
														{
															OFFSET 0.000000 0.000000 0.000000
														}
													}
												}
											}
										}
										JOINT LeftHandIndex1
										{
											OFFSET 24.424698 -1.985611 5.953459
											CHANNELS 3 Xrotation Yrotation Zrotation
											JOINT LeftHandIndex2
											{
												OFFSET 6.426697 0.000000 0.000000
												CHANNELS 3 Xrotation Yrotation Zrotation
												JOINT LeftHandIndex3
												{
													OFFSET 5.337898 0.000000 0.000000
													CHANNELS 3 Xrotation Yrotation Zrotation
													JOINT LeftHandIndex4
													{
														OFFSET 4.409401 0.000000 0.000000
														CHANNELS 3 Xrotation Yrotation Zrotation
														End Site
														{
															OFFSET 0.000000 0.000000 0.000000
														}
													}
												}
											}
										}
										JOINT LeftHandMiddle1
										{
											OFFSET 23.810104 0.000000 0.000000
											CHANNELS 3 Xrotation Yrotation Zrotation
											JOINT LeftHandMiddle2
											{
												OFFSET 7.176498 0.000000 0.000000
												CHANNELS 3 Xrotation Yrotation Zrotation
												JOINT LeftHandMiddle3
												{
													OFFSET 6.774902 0.000000 0.000000
													CHANNELS 3 Xrotation Yrotation Zrotation
													JOINT LeftHandMiddle4
													{
														OFFSET 5.403328 0.000000 0.000000
														CHANNELS 3 Xrotation Yrotation Zrotation
														End Site
														{
															OFFSET 0.000000 0.000000 0.000000
														}
													}
												}
											}
										}
										JOINT LeftHandRing1
										{
											OFFSET 22.908401 -0.839279 -6.020567
											CHANNELS 3 Xrotation Yrotation Zrotation
											JOINT LeftHandRing2
											{
												OFFSET 6.337502 0.000000 0.000000
												CHANNELS 3 Xrotation Yrotation Zrotation
												JOINT LeftHandRing3
												{
													OFFSET 5.779297 0.000000 0.000000
													CHANNELS 3 Xrotation Yrotation Zrotation
													JOINT LeftHandRing4
													{
														OFFSET 4.965698 0.000000 0.000000
														CHANNELS 3 Xrotation Yrotation Zrotation
														End Site
														{
															OFFSET 0.000000 0.000000 0.000000
														}
													}
												}
											}
										}
										JOINT LeftHandPinky1
										{
											OFFSET 20.037003 -1.530319 -10.950146
											CHANNELS 3 Xrotation Yrotation Zrotation
											JOINT LeftHandPinky2
											{
												OFFSET 5.254700 0.000000 0.000000
												CHANNELS 3 Xrotation Yrotation Zrotation
												JOINT LeftHandPinky3
												{
													OFFSET 4.810204 0.000000 0.000000
													CHANNELS 3 Xrotation Yrotation Zrotation
													JOINT LeftHandPinky4
													{
														OFFSET 3.647202 0.000000 0.000000
														CHANNELS 3 Xrotation Yrotation Zrotation
														End Site
														{
															OFFSET 0.000000 0.000000 0.000000
														}
													}
												}
											}
										}
									}
								}
							}
						}
					}
					JOINT RightShoulder
					{
						OFFSET -7.570500 7.247704 -3.868750
						CHANNELS 3 Xrotation Yrotation Zrotation
						JOINT RightShoulder_split
						{
							OFFSET -7.570500 7.247704 -3.868750
							CHANNELS 3 Xrotation Yrotation Zrotation
							JOINT RightArm
							{
								OFFSET -9.308998 -2.777710 0.208500
								CHANNELS 3 Xrotation Yrotation Zrotation
								JOINT RightForeArm
								{
									OFFSET -29.972300 0.000000 0.000000
									CHANNELS 3 Xrotation Yrotation Zrotation
									JOINT RightHand
									{
										OFFSET -26.026505 0.000000 0.000000
										CHANNELS 3 Xrotation Yrotation Zrotation
										JOINT RightHandThumb1
										{
											OFFSET -12.240601 -7.148026 9.207092
											CHANNELS 3 Xrotation Yrotation Zrotation
											JOINT RightHandThumb2
											{
												OFFSET -4.138618 -2.389435 2.389433
												CHANNELS 3 Xrotation Yrotation Zrotation
												JOINT RightHandThumb3
												{
													OFFSET -2.726974 -1.574417 1.574421
													CHANNELS 3 Xrotation Yrotation Zrotation
													JOINT RightHandThumb4
													{
														OFFSET -3.941010 -2.275345 2.275343
														CHANNELS 3 Xrotation Yrotation Zrotation
														End Site
														{
															OFFSET 0.000000 0.000000 0.000000
														}
													}
												}
											}
										}
										JOINT RightHandIndex1
										{
											OFFSET -24.424698 -1.985657 5.953444
											CHANNELS 3 Xrotation Yrotation Zrotation
											JOINT RightHandIndex2
											{
												OFFSET -6.426697 0.000000 0.000000
												CHANNELS 3 Xrotation Yrotation Zrotation
												JOINT RightHandIndex3
												{
													OFFSET -5.337898 0.000000 0.000000
													CHANNELS 3 Xrotation Yrotation Zrotation
													JOINT RightHandIndex4
													{
														OFFSET -4.409401 0.000000 0.000000
														CHANNELS 3 Xrotation Yrotation Zrotation
														End Site
														{
															OFFSET 0.000000 0.000000 0.000000
														}
													}
												}
											}
										}
										JOINT RightHandMiddle1
										{
											OFFSET -23.810097 0.000000 0.000000
											CHANNELS 3 Xrotation Yrotation Zrotation
											JOINT RightHandMiddle2
											{
												OFFSET -7.176498 0.000000 0.000000
												CHANNELS 3 Xrotation Yrotation Zrotation
												JOINT RightHandMiddle3
												{
													OFFSET -6.774902 0.000000 0.000000
													CHANNELS 3 Xrotation Yrotation Zrotation
													JOINT RightHandMiddle4
													{
														OFFSET -5.403328 0.000000 0.000000
														CHANNELS 3 Xrotation Yrotation Zrotation
														End Site
														{
															OFFSET 0.000000 0.000000 0.000000
														}
													}
												}
											}
										}
										JOINT RightHandRing1
										{
											OFFSET -22.908302 -0.839325 -6.020576
											CHANNELS 3 Xrotation Yrotation Zrotation
											JOINT RightHandRing2
											{
												OFFSET -6.337502 0.000000 0.000000
												CHANNELS 3 Xrotation Yrotation Zrotation
												JOINT RightHandRing3
												{
													OFFSET -5.779297 0.000000 0.000000
													CHANNELS 3 Xrotation Yrotation Zrotation
													JOINT RightHandRing4
													{
														OFFSET -4.965698 0.000000 0.000000
														CHANNELS 3 Xrotation Yrotation Zrotation
														End Site
														{
															OFFSET 0.000000 0.000000 0.000000
														}
													}
												}
											}
										}
										JOINT RightHandPinky1
										{
											OFFSET -20.037003 -1.530334 -10.950259
											CHANNELS 3 Xrotation Yrotation Zrotation
											JOINT RightHandPinky2
											{
												OFFSET -5.254700 0.000000 0.000000
												CHANNELS 3 Xrotation Yrotation Zrotation
												JOINT RightHandPinky3
												{
													OFFSET -4.810204 0.000000 0.000000
													CHANNELS 3 Xrotation Yrotation Zrotation
													JOINT RightHandPinky4
													{
														OFFSET -3.647202 0.000000 0.000000
														CHANNELS 3 Xrotation Yrotation Zrotation
														End Site
														{
															OFFSET 0.000000 0.000000 0.000000
														}
													}
												}
											}
										}
									}
								}
							}
						}
					}
				}
			}
		}
	}
	JOINT LeftUpLeg
	{
		OFFSET 15.427100 -6.655098 0.678600
		CHANNELS 3 Xrotation Yrotation Zrotation
		JOINT LeftLeg
		{
			OFFSET 4.081073 -39.591068 13.024000
			CHANNELS 3 Xrotation Yrotation Zrotation
			JOINT LeftFoot
			{
				OFFSET -4.081074 -37.707932 -15.979700
				CHANNELS 3 Xrotation Yrotation Zrotation
				JOINT LeftToeBase
				{
					OFFSET 5.346399 -15.068900 20.645000
					CHANNELS 3 Xrotation Yrotation Zrotation
					JOINT LeftToe_End
					{
						OFFSET 2.754700 0.931300 11.300900
						CHANNELS 3 Xrotation Yrotation Zrotation
						End Site
						{
							OFFSET 0.000000 0.000000 0.000000
						}
					}
				}
			}
		}
	}
	JOINT RightUpLeg
	{
		OFFSET -15.569500 -6.655098 0.678600
		CHANNELS 3 Xrotation Yrotation Zrotation
		JOINT RightLeg
		{
			OFFSET -4.081825 -39.591045 13.023800
			CHANNELS 3 Xrotation Yrotation Zrotation
			JOINT RightFoot
			{
				OFFSET 4.081824 -37.707954 -15.979600
				CHANNELS 3 Xrotation Yrotation Zrotation
				JOINT RightToeBase
				{
					OFFSET -5.346400 -15.068900 20.645000
					CHANNELS 3 Xrotation Yrotation Zrotation
					JOINT RightToe_End
					{
						OFFSET -2.754700 0.931300 11.300900
						CHANNELS 3 Xrotation Yrotation Zrotation
						End Site
						{
							OFFSET 0.000000 0.000000 0.000000
						}
					}
				}
			}
		}
	}
}
MOTION
Frames: 4
Frame Time: 0.016667
19.043703 85.082657 -22.766977 155.269078 -33.719510 161.200292 36.402395 2.349231 8.777968 -9.351835 -3.570433 1.181058 0.000000 0.000000 0.000000 -9.435590 -2.352111 2.017859 -12.226134 -7.455017 -5.693956 -19.356836 -12.917811 9.381451 0.000000 0.000001 -0.000000 5.744841 -10.522760 24.025841 0.000000 0.000000 0.000000 -67.510601 -3.722628 -45.267987 1.348471 -68.597639 4.202984 -49.957305 9.172199 6.229493 17.551619 -5.699232 -12.932305 10.850488 26.127765 8.644853 20.927000 51.115869 0.218747 -0.000000 0.000001 0.000000 13.980880 1.201524 -55.004353 0.370831 1.161733 -65.441900 1.983959 2.148007 -57.665108 -0.000001 0.000000 -0.000001 7.504730 1.174471 -63.778483 1.807828 1.475690 -64.567957 0.130383 -0.912243 -43.272517 0.000001 0.000000 -0.000001 8.574345 2.179093 -75.148979 -0.207653 1.009263 -57.855070 0.443085 1.742180 -53.581267 -0.000000 0.000000 0.000000 10.030083 13.637037 -84.750237 0.877111 0.062287 -64.595483 1.141289 1.253118 -55.016313 -0.000000 -0.000001 0.000000 8.424598 8.375892 -5.507274 0.000000 0.000000 0.000000 -1.238772 1.267727 68.329165 13.833039 26.209123 -4.662806 1.309566 4.198886 -0.028675 18.220819 -5.165849 -16.100675 -6.245477 -30.512514 3.865932 -4.832698 -8.294473 3.873369 -0.000002 -0.000001 -0.000001 8.324401 -2.978354 13.360772 -2.420659 -1.364225 30.156494 -1.107040 -5.091580 19.201810 0.000001 -0.000001 0.000000 -0.657855 -4.404972 22.423711 0.269040 -5.521315 37.097244 -0.665475 -0.398240 22.627824 -0.000001 -0.000000 0.000000 -4.177282 -8.849780 22.910726 4.057596 -1.935996 44.316682 2.658951 -1.335711 28.532010 0.000002 -0.000002 0.000000 -16.086315 -11.774056 19.303180 10.677799 -2.614212 41.806335 6.310778 -3.185091 20.926354 -0.000001 -0.000001 -0.000001 -12.805152 35.427525 24.532436 25.042624 16.699000 -3.086568 -14.363432 18.111054 -32.494109 -0.292628 -0.111899 -0.580101 0.000000 -0.000000 0.000000 -59.796073 19.010006 10.456227 32.219898 -0.824016 2.577554 2.110707 -5.624113 5.864645 -0.000205 0.062440 0.008406 0.000000 0.000000 0.000000 
18.992006 85.269859 -22.857109 155.426146 -33.909758 161.408654 36.363196 2.368400 8.793799 -9.302414 -3.573407 1.240606 0.000000 0.000000 0.000000 -9.386067 -2.346660 2.077847 -12.663935 -9.245407 -5.425660 -18.143122 -14.473891 9.482520 0.000000 -0.000000 -0.000000 5.600727 -10.392676 23.545701 0.000000 0.000000 0.000000 -67.435045 -3.677374 -45.248159 1.632249 -68.445271 4.470503 -49.937135 9.068378 6.209545 17.551619 -5.699233 -12.932305 10.850488 26.127762 8.644856 20.927000 51.115876 0.218741 -0.000000 0.000001 0.000001 13.980884 1.201523 -55.004360 0.370831 1.161732 -65.441900 1.983960 2.148005 -57.665115 0.000002 -0.000000 -0.000002 7.504731 1.174471 -63.778483 1.807829 1.475689 -64.567964 0.130383 -0.912242 -43.272517 -0.000001 -0.000001 0.000002 8.574346 2.179093 -75.148979 -0.207654 1.009263 -57.855070 0.443084 1.742180 -53.581267 0.000001 0.000000 -0.000000 10.030083 13.637039 -84.750244 0.877108 0.062285 -64.595490 1.141288 1.253118 -55.016313 -0.000001 -0.000000 -0.000000 8.387680 8.109945 -5.631587 0.000000 0.000000 0.000000 -1.325129 1.460306 68.468330 13.559642 26.271824 -4.380963 1.637684 4.236969 0.170623 18.207642 -5.153446 -16.107063 -6.281787 -30.420730 3.877086 -4.766658 -8.440347 3.821740 -0.000004 -0.000001 -0.000001 8.217434 -2.911588 13.348500 -2.416331 -1.394008 30.239891 -1.102674 -5.099073 19.228699 -0.000002 -0.000001 -0.000000 -0.797129 -4.366876 22.488053 0.278296 -5.517108 37.121713 -0.665327 -0.403046 22.578720 0.000001 -0.000000 -0.000001 -4.248844 -8.728401 23.054460 4.015909 -2.019638 44.438901 2.657866 -1.342493 28.444249 0.000001 0.000003 0.000002 -16.404438 -11.839663 19.617946 10.678529 -2.615769 41.769776 6.311632 -3.184188 20.897471 0.000000 0.000000 -0.000001 -12.138675 35.380790 24.062085 24.407814 16.839883 -3.011539 -14.071224 18.067365 -32.446325 -0.292597 -0.109489 -0.580998 0.000000 -0.000001 0.000000 -59.259548 18.900388 10.192468 32.024834 -0.791102 2.564719 2.051185 -5.509345 5.752190 -0.000201 0.062560 0.008458 -0.000000 0.000001 0.000000 
18.953062 85.449715 -22.922308 155.558815 -34.089706 161.619706 36.291732 2.385860 8.815413 -9.262704 -3.564028 1.268314 0.000000 0.000000 0.000000 -9.346579 -2.337920 2.102957 -12.950604 -10.349945 -5.301798 -17.398333 -15.412052 9.443615 -0.000000 -0.000000 -0.000000 5.455872 -10.276579 23.062284 0.000000 0.000000 0.000000 -67.354524 -3.637401 -45.228078 1.900065 -68.291681 4.723998 -49.919681 8.973200 6.196757 17.551619 -5.699232 -12.932305 10.850489 26.127765 8.644856 20.926994 51.115869 0.218741 -0.000000 -0.000000 0.000000 13.980879 1.201523 -55.004357 0.370831 1.161730 -65.441900 1.983959 2.148010 -57.665108 0.000001 0.000001 -0.000001 7.504730 1.174472 -63.778490 1.807829 1.475691 -64.567964 0.130384 -0.912242 -43.272517 0.000000 -0.000000 -0.000001 8.574345 2.179093 -75.148986 -0.207654 1.009265 -57.855070 0.443084 1.742180 -53.581267 -0.000001 -0.000000 0.000001 10.030084 13.637037 -84.750237 0.877109 0.062287 -64.595476 1.141288 1.253118 -55.016320 -0.000001 -0.000000 -0.000000 8.353437 7.968179 -5.710316 0.000000 0.000000 0.000000 -1.302537 1.649688 68.639242 13.413311 26.330425 -4.243893 1.725162 4.280980 0.377625 18.194488 -5.141147 -16.113441 -6.316144 -30.331613 3.889173 -4.703249 -8.581988 3.771493 -0.000001 -0.000000 0.000002 8.114756 -2.847535 13.337025 -2.411870 -1.422822 30.319886 -1.098503 -5.106230 19.254508 -0.000000 0.000000 -0.000001 -0.930838 -4.330622 22.550037 0.287444 -5.512987 37.145151 -0.665207 -0.407906 22.531551 -0.000001 0.000001 -0.000001 -4.318086 -8.612275 23.192556 3.976684 -2.100079 44.556223 2.656945 -1.349020 28.360001 0.000003 0.000000 -0.000000 -16.709576 -11.906589 19.920018 10.679297 -2.617324 41.733180 6.312512 -3.183260 20.868617 -0.000002 -0.000001 -0.000000 -11.517862 35.317023 23.578901 23.812744 16.982939 -2.936398 -13.794668 18.029766 -32.386363 -0.292634 -0.107022 -0.581948 0.000000 0.000001 0.000000 -58.731506 18.855477 9.689141 31.914243 -1.760247 2.509391 1.964015 -4.300217 5.873029 -0.000201 0.062660 0.008506 -0.000000 0.000001 -0.000000 
18.915648 85.606461 -22.986500 155.678917 -34.269682 161.843450 36.206331 2.392391 8.831890 -9.227468 -3.548996 1.281478 0.000000 0.000000 0.000000 -9.311685 -2.327708 2.112164 -13.170380 -11.140841 -5.245222 -16.873793 -16.069922 9.340672 -0.000000 0.000000 -0.000000 5.312903 -10.162599 22.584266 0.000000 0.000000 0.000000 -67.273996 -3.603499 -45.213841 2.101668 -68.140447 4.908480 -49.904381 8.881473 6.194710 17.551619 -5.699234 -12.932307 10.850491 26.127765 8.644856 20.927001 51.115869 0.218747 -0.000000 -0.000001 -0.000001 13.980882 1.201523 -55.004360 0.370830 1.161731 -65.441900 1.983958 2.148008 -57.665108 0.000003 -0.000001 0.000001 7.504729 1.174471 -63.778490 1.807827 1.475691 -64.567957 0.130383 -0.912242 -43.272517 -0.000001 -0.000000 0.000003 8.574345 2.179093 -75.148979 -0.207655 1.009264 -57.855070 0.443085 1.742179 -53.581263 -0.000001 0.000001 -0.000002 10.030084 13.637039 -84.750244 0.877107 0.062288 -64.595483 1.141286 1.253116 -55.016313 -0.000001 -0.000001 -0.000000 8.320675 7.882604 -5.768244 0.000000 0.000000 0.000000 -1.231533 1.837843 68.824005 13.324715 26.387473 -4.172548 1.703418 4.326791 0.587468 18.181272 -5.128765 -16.119877 -6.348231 -30.245536 3.902260 -4.642609 -8.719074 3.722712 -0.000001 0.000000 -0.000001 8.016899 -2.786401 13.326231 -2.407375 -1.450645 30.396217 -1.094616 -5.113036 19.279078 -0.000001 0.000001 -0.000000 -1.058379 -4.296383 22.609335 0.296467 -5.508837 37.167601 -0.665108 -0.412787 22.486610 -0.000002 -0.000002 -0.000001 -4.384638 -8.501915 23.324305 3.940080 -2.176944 44.668098 2.656230 -1.355357 28.279655 -0.000001 0.000001 0.000001 -17.000395 -11.974042 20.208008 10.680039 -2.618845 41.696563 6.313392 -3.182329 20.839728 -0.000001 -0.000001 -0.000001 -10.910988 35.243926 23.089057 23.254993 17.108546 -2.870068 -13.540407 18.004911 -32.324632 -0.292623 -0.104552 -0.582868 0.000000 -0.000002 -0.000000 -58.289490 18.728000 9.422533 31.762384 -1.586897 2.505587 1.925823 -4.298664 5.746669 -0.000180 0.062797 0.008537 -0.000000 0.000002 0.000000 
